<svg id="Layer_5" data-name="Layer 5" xmlns="http://www.w3.org/2000/svg" viewBox="0 0 125 42.05"><defs><style>.cls-1{fill:#333;}.cls-2{fill:#fff;}.cls-3{fill:#32a7df;}</style></defs><title>belly</title><g id="Light_BG" data-name="Light BG"><g id="Belly"><path id="Y" class="cls-1" d="M5136,1010v10.75c0,3.06-.6,5.42-2,7a7,7,0,0,1-5.55,2.39,6.25,6.25,0,0,1-3.29-.81,7.16,7.16,0,0,1-2.27-2.15,9.88,9.88,0,0,1-1.39-3,13.74,13.74,0,0,1-.49-3.41V1010h-2v10.74l-0.12.26h0a12.16,12.16,0,0,0,.6,3.86,12.46,12.46,0,0,0,1.82,3.84,9.28,9.28,0,0,0,3,2.66,9.55,9.55,0,0,0,10-.89c0.71-.57,1.68-1.22,1.68-2v1.95a7.41,7.41,0,0,1-7.32,7.54H5127v2h1.69l1.31,0v0c4-.38,8-4.68,8-9.8V1010h-2Z" transform="translate(-5013 -998)"/><rect id="L" class="cls-1" x="95" y="2" width="2" height="32"/><rect id="L-2" data-name="L" class="cls-1" x="100" y="2" width="2" height="32"/><path id="E" class="cls-1" d="M5101.28,1023c-0.33,2-1.15,4.12-2.44,5.15a8,8,0,0,1-5,1.81,7.81,7.81,0,0,1-3.47-.58,6,6,0,0,1-2.27-1.84,10.18,10.18,0,0,1-1.33-3.21,11,11,0,0,1-.46-3.33h17.46l0-.37a14.22,14.22,0,0,0-.45-4.2,10.73,10.73,0,0,0-1.74-3.71,9,9,0,0,0-3.14-2.66,9.64,9.64,0,0,0-4.55-1,9.33,9.33,0,0,0-6.88,3.12,11.62,11.62,0,0,0-2.17,3.67,13.79,13.79,0,0,0-.82,4.9,17.84,17.84,0,0,0,.55,4.52,10.9,10.9,0,0,0,1.75,3.75,8.08,8.08,0,0,0,3.1,2.52,10,10,0,0,0,4.25.84h0.23a9.89,9.89,0,0,0,6.48-2.18,10.21,10.21,0,0,0,3.15-6.61l0-.6h-2.25Zm-14.26-6.78a8.57,8.57,0,0,1,1.68-2.68,6.74,6.74,0,0,1,2.36-1.67,7.19,7.19,0,0,1,2.91-.57,7.44,7.44,0,0,1,3.27.69,6.76,6.76,0,0,1,2.34,1.87,7.47,7.47,0,0,1,1.44,2.6,4.86,4.86,0,0,1,.48,2.53h-15.19A5.18,5.18,0,0,1,5087,1016.22Z" transform="translate(-5013 -998)"/><path id="B" class="cls-1" d="M5081.92,1021a14.13,14.13,0,0,0-.62-4.51,12.2,12.2,0,0,0-1.82-3.79,9.19,9.19,0,0,0-3-2.64,8.71,8.71,0,0,0-4.17-1,9.94,9.94,0,0,0-6.21,1.9c-0.71.57-2.08,1.23-2.08,2V1000h-2v28l0.26,0.13a12.6,12.6,0,0,0,2.6,2.26,14,14,0,0,0,3.46,1.55,11.77,11.77,0,0,0,3.35.52,9.32,9.32,0,0,0,1.63-.14,9.5,9.5,0,0,0,4.92-2.3c2.31-2.19,3.69-7,3.7-9h0Zm-2.25-.45c0,0.15,0,.31,0,0.45s0,0.23,0,.29a13.38,13.38,0,0,1-.85,3.77h0a8.08,8.08,0,0,1-3.52,4.18,7.09,7.09,0,0,1-2.12.83,8.35,8.35,0,0,1-2.2.08,10.7,10.7,0,0,1-4.79-1.52c-0.82-.53-2.15-1-2.15-1.55v-6.34a10.47,10.47,0,0,1,2.41-7.07,7.44,7.44,0,0,1,5.75-2.38,6.63,6.63,0,0,1,3.39.81,7.32,7.32,0,0,1,2.31,2.15,9.78,9.78,0,0,1,1.36,3A13.91,13.91,0,0,1,5079.67,1020.55Z" transform="translate(-5013 -998)"/></g><rect id="White_Block" data-name="White Block" class="cls-2" x="8" y="8" width="22" height="22"/><path id="Flop" class="cls-3" d="M5053,1002.41a4.41,4.41,0,0,0-4.41-4.41h-31.18a4.41,4.41,0,0,0-4.41,4.41v31.18a4.41,4.41,0,0,0,4.41,4.41h31.18a4.41,4.41,0,0,0,4.41-4.41v-31.18Zm-14.84,22.67c0.81,0.2,1.2-.08,1.24,1.92h-2.83a1.4,1.4,0,0,1-.57-1.19V1025h-0.11s-0.08-2.23-.09-2.63a6.53,6.53,0,0,1-5.7,4.44,6.7,6.7,0,0,1-6.25-3.22c-0.41.27-.34,0.43-0.34,0.43a3.1,3.1,0,0,1,1.3,1H5022c-0.33,0-.59.44-0.59,0.1,0,0-.22-3.44-0.06-7,0.17-3.86,1.05-4.6,1.25-4.86a4.75,4.75,0,0,0,5,4.58,5.63,5.63,0,0,0,5.62-5.66,5.69,5.69,0,0,0-2-4.33l0,0c2.38-.65,3.2,1,3.2,1a2,2,0,0,1,2.23-1.17,10.67,10.67,0,0,0-.45,2,3.21,3.21,0,0,1,2.6,1.18l4.88-1.51a5.5,5.5,0,0,1-2.73,6.76c-2.35,1-2.67,2.49-2.84,4.19A21.7,21.7,0,0,0,5038.16,1025.08Z" transform="translate(-5013 -998)"/></g></svg>