<?xml version="1.0" encoding="UTF-8" standalone="no"?>
<svg width="710px" height="277px" viewBox="0 0 710 277" version="1.1" xmlns="http://www.w3.org/2000/svg" xmlns:xlink="http://www.w3.org/1999/xlink">
    <!-- Generator: Sketch 3.7.2 (28276) - http://www.bohemiancoding.com/sketch -->
    <title>Slice 1</title>
    <desc>Created with Sketch.</desc>
    <defs></defs>
    <g id="Page-1" stroke="none" stroke-width="1" fill="none" fill-rule="evenodd">
        <g id="draeger" fill="#02029A">
            <g id="layer1" transform="translate(0.400341, 0.308074)">
                <path d="M0.316215,6.174717 L0.316215,29.193848 L71.018845,29.193848 C79.238955,29.193848 83.350015,30.837078 87.461085,34.948128 C90.749525,39.059188 90.749525,40.702418 90.749525,55.501428 L90.749525,173.88552 C90.749525,196.08204 86.638465,200.1931 66.907775,200.1931 L47.177094,200.1931 L47.177094,52.212978 L0.316215,52.212978 L0.316215,225.67807 L87.461085,225.67807 C108.012365,225.67807 113.768665,224.03484 123.634005,214.1695 C132.676725,205.12478 134.319935,198.54788 134.319935,173.06291 L134.319935,48.924528 C134.319935,33.304898 132.676725,27.548628 126.099835,19.328508 C117.877705,10.283777 107.191765,6.174717 92.392745,6.174717 L0.316215,6.174717 L0.316215,6.174717 L0.316215,6.174717 Z M148.29634,225.67807 L191.86878,225.67807 L191.86878,113.87087 C191.86878,105.65075 191.86878,103.18291 193.512,100.71708 C195.97985,94.96279 202.55674,91.67435 210.77685,91.67435 C218.17636,91.67435 223.10802,93.31757 228.86432,97.42863 L228.86432,64.544158 C180.35821,65.366768 164.73859,68.655218 148.29634,81.808998 L148.29634,225.67807 L148.29634,225.67807 Z M262.56939,0.418437 C248.59501,0.418437 237.90705,11.106387 237.90705,24.260178 C237.90705,38.236578 248.59501,48.924528 262.56939,48.924528 C275.72318,48.924528 286.41114,38.236578 286.41114,24.260178 C286.41114,11.106387 275.72318,0.420427 262.56939,0.420427 L262.56939,0.418437 L262.56939,0.418437 Z M320.94085,0.418437 C306.96444,0.418437 296.27648,11.106387 296.27648,24.260178 C296.27648,38.236578 306.96444,48.924528 320.94085,48.924528 C334.09464,48.924528 344.78057,38.236578 344.78057,24.260178 C344.78057,11.106387 334.09464,0.420427 320.94085,0.420427 L320.94085,0.418437 L320.94085,0.418437 Z M302.85338,122.9136 L265.03724,122.9136 C250.23822,122.9136 243.66132,124.55882 236.26181,131.95832 C228.04171,138.53521 223.93064,148.40056 223.93064,161.55435 L223.93064,187.03931 C223.93064,198.54788 226.39647,206.77 232.97336,214.1695 C241.19549,223.21223 248.59501,225.67807 265.85784,225.67807 L347.24843,225.67807 L347.24843,103.18291 C347.24843,92.49696 343.95998,83.452228 336.56047,76.054718 C327.51774,67.009998 320.11823,64.544158 303.67599,64.544158 L237.90705,64.544158 L237.90705,97.42863 C254.34928,90.85174 265.03724,88.385898 279.83425,88.385898 C295.45386,88.385898 302.85338,93.31757 302.85338,104.00553 L302.85338,122.9136 L302.85338,122.9136 Z M302.85338,200.1931 L283.94531,200.1931 C276.5458,200.1931 270.79152,197.72727 267.50307,191.97099 C265.85784,189.50515 265.85784,188.68254 265.85784,181.28503 L265.85784,166.48602 C265.85784,154.15484 271.61414,148.40056 283.94531,148.40056 L302.85338,148.40056 L302.85338,200.1931 L302.85338,200.1931 Z M477.9637,65.366768 L400.68418,65.366768 C385.88718,65.366768 380.1329,67.009998 371.91077,73.586888 C363.69066,80.986388 359.5796,91.67435 359.5796,104.00553 L359.5796,127.84727 C359.5796,137.7126 362.86805,147.57794 369.44494,154.97745 C377.66505,164.02018 384.24194,166.48602 400.68418,166.48602 L436.03651,166.48602 C451.65613,166.48602 458.23302,164.02018 465.63253,158.2659 C473.85264,150.86639 477.9637,141.00105 477.9637,127.84727 L477.9637,65.366768 L477.9637,65.366768 Z M400.68418,106.47136 C400.68418,95.7854 407.26107,89.208508 419.59427,89.208508 C431.92544,89.208508 438.50234,95.7854 438.50234,106.47136 L438.50234,125.38143 C438.50234,136.06738 431.10282,142.64428 419.59427,142.64428 C407.26304,142.64428 400.68418,136.06738 400.68418,125.38143 L400.68418,106.47136 L400.68418,106.47136 Z M481.25215,211.70167 C481.25215,199.37049 478.78632,191.15037 472.20943,183.75087 C463.9873,174.70814 454.94457,172.2403 437.67972,172.2403 L401.5068,172.2403 C385.06456,172.2403 378.48767,173.88552 370.26756,180.46242 C362.04543,187.86193 357.11377,199.37049 357.11377,211.70167 L357.11377,235.54341 C357.11377,247.05397 361.22281,256.91931 367.79971,263.49621 C376.02184,272.53894 383.42135,275.00478 401.5068,275.00478 L437.67972,275.00478 C453.3013,275.00478 460.69885,273.36155 468.92098,266.78466 C477.14109,259.38515 481.25215,250.34242 481.25215,235.54341 L481.25215,211.70167 L481.25215,211.70167 L481.25215,211.70167 Z M400.68418,215.81273 C400.68418,203.48155 406.44048,196.90466 418.77165,196.90466 C431.10282,196.90466 437.67972,203.48155 437.67972,215.81273 L437.67972,233.90018 C437.67972,244.58615 431.10282,251.16304 419.59427,251.16304 C407.26304,251.16304 400.68418,244.58615 400.68418,233.90018 L400.68418,215.81273 L400.68418,215.81273 Z M614.43519,166.48602 L614.43519,104.00553 C614.43519,77.697948 600.45889,65.366768 570.86289,65.366768 L534.68993,65.366768 C519.07025,65.366768 512.49139,67.009998 504.27128,73.586888 C496.05112,80.986388 491.11749,91.67435 491.11749,104.00553 L491.11749,187.03931 C491.11749,198.54788 494.40594,206.77 501.80545,214.99012 C510.02556,223.21223 517.42507,225.67807 534.68993,225.67807 L613.61269,225.67807 L613.61269,192.7936 C591.41609,199.37049 578.26029,201.01571 561.81809,201.01571 C542.90999,201.01571 534.68993,196.90466 534.68993,186.2167 L534.68993,166.48602 L614.43519,166.48602 L614.43519,166.48602 L614.43519,166.48602 Z M534.68993,141.00105 L534.68993,108.11658 C534.68993,95.7854 540.4442,89.208508 552.77539,89.208508 C564.28599,89.208508 570.86289,95.7854 570.86289,107.29397 L570.86289,141.00105 L534.68993,141.00105 L534.68993,141.00105 Z M628.40969,225.67807 L671.98209,225.67807 L671.98209,113.87087 C671.98209,105.65075 671.98209,103.18291 673.62529,100.71708 C676.09319,94.96279 682.67009,91.67435 690.89019,91.67435 C698.28969,91.67435 703.22129,93.31757 708.97759,97.42863 L708.97759,64.544158 C660.47349,65.366768 644.85189,68.655218 628.40969,81.808998 L628.40969,225.67807 L628.40969,225.67807 Z" id="path4486"></path>
            </g>
        </g>
    </g>
</svg>