<svg id="Handheld" xmlns="http://www.w3.org/2000/svg" viewBox="0 0 210 133.67"><title>homechef</title><path d="M5809,2365h-87v-0.43q0-35.2,0-70.41a1.21,1.21,0,0,1,.79-1.23q21.11-10.69,42.22-21.42a1,1,0,0,1,1.09-.07q20.31,10.41,40.65,20.78c0.73,0.37,1.47.73,2.18,1.14a1.16,1.16,0,0,1,.21.64,1.93,1.93,0,0,1-.17.49V2365Zm-34.67-5c0.11-2,.21-4.27.32-6.45a47.31,47.31,0,0,0-.53-10.44c-0.85-5-1.88-9.94-2.82-14.92a40.85,40.85,0,0,1-1.14-9.73,82,82,0,0,1,1.1-9,29.36,29.36,0,0,1,6.12-14,1.13,1.13,0,0,1,2.12.71c0,8.45,0,16.9,0,25.35-0.05,7.3-.25,14.6-0.28,21.89,0,4.85.12,9.56,0.21,14.41a12.85,12.85,0,0,0,.18,2.15h24.74a2.29,2.29,0,0,0,0-.39c0-20.84,0-41.61,0-62.45a0.82,0.82,0,0,0-.58-0.86q-18.74-9.55-37.46-19.13a1.3,1.3,0,0,0-1.35,0q-18.62,9.47-37.27,18.91a1,1,0,0,0-.64,1c0,19.79,0,39.58,0,59.36v3.5h26.8c0-1,0-2,0-3.12,0.16-4,.36-7.89.53-11.88,0.12-2.62.24-5.21,0.34-7.84,0.08-2.11.17-4.2,0.19-6.31a5.82,5.82,0,0,0-1.15-3.46,14.64,14.64,0,0,1-1.52-2.83,28.06,28.06,0,0,1-1.66-13.66c0.33-3.43.47-6.88,0.7-10.32,0.08-1.26.17-2.53,0.28-3.79a1,1,0,0,1,.84-1.07,1.05,1.05,0,0,1,1.14.84,1.65,1.65,0,0,1,.09.55q0.15,6.76.29,13.51c0,2.21.09,4.41,0.15,6.62,0,0.46,0,1,.7,1s0.72-.48.73-1,0.07-1.17.09-1.76q0.31-9.18.61-18.36a2.92,2.92,0,0,1,.12-0.69,0.81,0.81,0,0,1,.87-0.74,1,1,0,0,1,1,.87,3.22,3.22,0,0,1,.05.63q0.18,7.28.35,14.57,0.07,2.85.14,5.7a0.65,0.65,0,0,0,.6.79,0.75,0.75,0,0,0,.82-0.7,1.85,1.85,0,0,0,0-.35q0.21-8.09.43-16.18,0.06-2,.14-4.08a1.23,1.23,0,0,1,1.11-1.22,1,1,0,0,1,1,1.15q0.14,2.25.28,4.49c0.18,2.95.4,5.9,0.52,8.85,0.12,2.71.53,5.42,0,8.14-0.61,3.38-1.39,6.68-3.44,9.55a4.43,4.43,0,0,0-.76,2.14,41.79,41.79,0,0,0,0,4.49c0.09,3,.23,6,0.36,9.07,0.15,3.59.32,7,.48,10.6,0.09,2,.18,3.8.27,5.8h13.85Z" transform="translate(-5662 -2271.33)"/><path d="M5699.88,2378.61a13,13,0,1,1-13,13.1A13,13,0,0,1,5699.88,2378.61Zm7.9,13a7.89,7.89,0,1,0-7.9,7.92A7.94,7.94,0,0,0,5707.78,2391.62Z" transform="translate(-5662 -2271.33)"/><path d="M5741,2405h-5v-14.71c-3,2.6-5.11,5-7.52,7.54a103.11,103.11,0,0,0-7.48-7.5V2404h-5v-25.47c5,4.23,8.43,8.38,12.49,12.58,4-4.19,8.51-8.34,12.51-12.6V2405Z" transform="translate(-5662 -2271.33)"/><path d="M5822,2379h5v25h-5v-9.63a5.79,5.79,0,0,0-.8-0.05c-3.38,0-6.77,0-10.15,0-0.58,0-.92.16-0.91,0.75,0,2.82-.14,5.63-0.14,8.45v0.5h-5v-25h5v10h12v-10Z" transform="translate(-5662 -2271.33)"/><path d="M5679,2404.37v-0.87c0-2.84-.25-5.68-0.24-8.52a0.61,0.61,0,0,0-.74-0.68c-3.5,0-7,0-10.48,0a1.67,1.67,0,0,0-.53.08v9.6h-5v-25h5v0.66c0,3-.07,5.91-0.07,8.87,0,0.37-.07.69,0.48,0.69,3.59,0,7.41,0,11,0,0.09,0-.41,0,0.59-0.07V2379h4v25.41h-3.62A1,1,0,0,1,5679,2404.37Z" transform="translate(-5662 -2271.33)"/><path d="M5747,2379h17v4h-0.69c-3.61,0-7.23.09-10.84,0.07-0.57,0-.78,0-0.77.6,0,1.8,0,4.33,0,5.33H5762v5h-10v6h12v4h-17v-25Z" transform="translate(-5662 -2271.33)"/><path d="M5833,2379h17v4h-12v6h9v5h-9v6h12v4h-17v-25Z" transform="translate(-5662 -2271.33)"/><path d="M5800.47,2382.58l-3.59,3.53a7.81,7.81,0,0,0-6.53-2.35,7.6,7.6,0,0,0-5.14,2.74,7.93,7.93,0,0,0,11.73,10.67l3.52,3.52c-2.38,2.92-7.77,5.05-13,3.44a13.08,13.08,0,0,1-.44-24.82A12.77,12.77,0,0,1,5800.47,2382.58Z" transform="translate(-5662 -2271.33)"/><path d="M5872,2379v4h-0.86c-3.52,0-7,.09-10.56.07a0.63,0.63,0,0,0-.77.78c0,1.74,0,3.6,0,5.34a7,7,0,0,0,0,.82H5869v5h-9v9h-5v-25h17Z" transform="translate(-5662 -2271.33)"/></svg>