<?xml version="1.0" encoding="utf-8"?>
<!-- Generator: Adobe Illustrator 19.2.1, SVG Export Plug-In . SVG Version: 6.00 Build 0)  -->
<svg version="1.1" id="Handheld" xmlns="http://www.w3.org/2000/svg" xmlns:xlink="http://www.w3.org/1999/xlink" x="0px" y="0px"
	 viewBox="0 0 210 153.7" style="enable-background:new 0 0 210 153.7;" xml:space="preserve">
<title>homechef</title>
<path d="M147,93.7H60v-0.4c0-23.5,0-46.9,0-70.4c0-0.5,0.3-1,0.8-1.2C74.9,14.5,88.9,7.3,103,0.2c0.3-0.2,0.7-0.3,1.1-0.1
	c13.5,6.9,27.1,13.9,40.6,20.8c0.7,0.4,1.5,0.7,2.2,1.1c0.1,0.2,0.2,0.4,0.2,0.6c0,0.2-0.1,0.3-0.2,0.5L147,93.7L147,93.7z
	 M112.3,88.7c0.1-2,0.2-4.3,0.3-6.4c0.2-3.5,0-7-0.5-10.4c-0.9-5-1.9-9.9-2.8-14.9c-0.8-3.2-1.2-6.5-1.1-9.7c0.2-3,0.6-6,1.1-9
	c0.8-5.1,2.9-10,6.1-14c0.3-0.6,1-0.8,1.5-0.5c0.4,0.2,0.7,0.7,0.6,1.2c0,8.4,0,16.9,0,25.4c0,7.3-0.2,14.6-0.3,21.9
	c0,4.9,0.1,9.6,0.2,14.4c0,0.7,0.1,1.4,0.2,2.1h24.7c0-0.1,0-0.3,0-0.4c0-20.8,0-41.6,0-62.4c0-0.4-0.2-0.7-0.6-0.9
	c-12.5-6.4-25-12.7-37.5-19.1c-0.4-0.3-0.9-0.3-1.4,0c-12.4,6.3-24.8,12.6-37.3,18.9c-0.4,0.2-0.7,0.6-0.6,1c0,19.8,0,39.6,0,59.4
	v3.5h26.8c0-1,0-2,0-3.1c0.2-4,0.4-7.9,0.5-11.9c0.1-2.6,0.2-5.2,0.3-7.8c0.1-2.1,0.2-4.2,0.2-6.3c0-1.2-0.4-2.5-1.1-3.5
	c-0.6-0.9-1.1-1.8-1.5-2.8c-1.7-4.3-2.2-9-1.7-13.7c0.3-3.4,0.5-6.9,0.7-10.3c0.1-1.3,0.2-2.5,0.3-3.8c0-0.5,0.3-1,0.8-1.1
	c0.5-0.1,1,0.3,1.1,0.8c0.1,0.2,0.1,0.4,0.1,0.6c0.1,4.5,0.2,9,0.3,13.5c0,2.2,0.1,4.4,0.1,6.6c0,0.5,0,1,0.7,1s0.7-0.5,0.7-1
	s0.1-1.2,0.1-1.8c0.2-6.1,0.4-12.2,0.6-18.4c0-0.2,0.1-0.5,0.1-0.7c0-0.4,0.4-0.8,0.9-0.7c0.5,0,0.9,0.4,1,0.9c0,0.2,0.1,0.4,0,0.6
	c0.1,4.9,0.2,9.7,0.4,14.6c0,1.9,0.1,3.8,0.1,5.7c-0.1,0.4,0.1,0.7,0.5,0.8c0,0,0.1,0,0.1,0c0.4,0,0.8-0.3,0.8-0.7c0,0,0,0,0,0
	c0-0.1,0-0.2,0-0.4c0.1-5.4,0.3-10.8,0.4-16.2c0-1.3,0.1-2.7,0.1-4.1c0-0.6,0.5-1.2,1.1-1.2c0.6,0,1,0.4,1,1c0,0.1,0,0.1,0,0.2
	c0.1,1.5,0.2,3,0.3,4.5c0.2,2.9,0.4,5.9,0.5,8.9c0.1,2.7,0.5,5.4,0,8.1c-0.6,3.4-1.4,6.7-3.4,9.6c-0.4,0.6-0.7,1.4-0.8,2.1
	c-0.1,1.5-0.1,3,0,4.5c0.1,3,0.2,6,0.4,9.1c0.1,3.6,0.3,7,0.5,10.6c0.1,2,0.2,3.8,0.3,5.8L112.3,88.7L112.3,88.7z"/>
<path d="M37.9,107.3c7.2,0,13,5.8,13,13c0,7.2-5.8,13-13,13c-7.1,0-12.9-5.8-13-12.9c-0.1-7.2,5.7-13,12.9-13.1
	C37.8,107.3,37.8,107.3,37.9,107.3z M45.8,120.3c0-4.4-3.6-7.9-7.9-7.9c-4.4,0-7.9,3.6-7.9,7.9c0,4.3,3.5,7.9,7.9,7.9
	C42.2,128.2,45.8,124.6,45.8,120.3L45.8,120.3z"/>
<path d="M79,133.7h-5V119c-3,2.6-5.1,5-7.5,7.5c-2.4-2.6-4.9-5.1-7.5-7.5v13.7h-5v-25.5c5,4.2,8.4,8.4,12.5,12.6
	c4-4.2,8.5-8.3,12.5-12.6V133.7z"/>
<path d="M160,107.7h5v25h-5V123c-0.3,0-0.5-0.1-0.8-0.1c-3.4,0-6.8,0-10.1,0c-0.6,0-0.9,0.2-0.9,0.8c0,2.8-0.1,5.6-0.1,8.4v0.5h-5
	v-25h5v10h12V107.7L160,107.7z"/>
<path d="M17,133v-0.9c0-2.8-0.2-5.7-0.2-8.5c0-0.3-0.2-0.6-0.5-0.7c-0.1,0-0.1,0-0.2,0c-3.5,0-7,0-10.5,0c-0.2,0-0.4,0-0.5,0.1v9.6
	H0v-25h5v0.7c0,3-0.1,5.9-0.1,8.9c0,0.4-0.1,0.7,0.5,0.7c3.6,0,7.4,0,11,0c0.1,0-0.4,0,0.6-0.1v-10.1h4v25.4h-3.6
	C17.3,133.1,17.1,133.1,17,133z"/>
<path d="M85,107.7h17v4h-0.7c-3.6,0-7.2,0.1-10.8,0.1c-0.6,0-0.8,0-0.8,0.6c0,1.8,0,4.3,0,5.3H100v5H90v6h12v4H85V107.7L85,107.7z"
	/>
<path d="M171,107.7h17v4h-12v6h9v5h-9v6h12v4h-17V107.7z"/>
<path d="M138.5,111.2l-3.6,3.5c-1.7-1.8-4.1-2.6-6.5-2.4c-2,0.2-3.9,1.2-5.1,2.7c-2.9,3.3-2.5,8.3,0.8,11.2c3.2,2.8,8.1,2.6,11-0.5
	l3.5,3.5c-2.4,2.9-7.8,5.1-13,3.4c-6.9-2.2-10.7-9.5-8.6-16.4c1.2-3.9,4.2-7.1,8.1-8.4C129.8,106.3,135,107.6,138.5,111.2z"/>
<path d="M210,107.7v4h-0.9c-3.5,0-7,0.1-10.6,0.1c-0.3-0.1-0.7,0.1-0.8,0.4c0,0.1,0,0.2,0,0.3c0,1.7,0,3.6,0,5.3c0,0.3,0,0.5,0,0.8
	h9.2v5h-9v9h-5v-25L210,107.7L210,107.7z"/>
</svg>
