<svg xmlns="http://www.w3.org/2000/svg" width="512" height="512" viewBox="0 0 512 512"><style>.st0{fill:#4e8ef7}.st1{display:inline}.st2{display:none}</style><g class="st2 st1" id="Layer_1"><path class="st0" d="M434.6 121.3c4.5-5.4 7.2-12.4 7.2-20 0-17.3-14-31.3-31.3-31.3-7.6 0-14.5 2.7-20 7.2C353 48.8 306.3 32 255.8 32c-123.5 0-224 100.5-224 224s100.5 224 224 224 224-100.5 224-224c0-50.6-16.8-97.2-45.2-134.7zM255.8 471c-118.6 0-215-96.5-215-215 0-118.6 96.5-215 215-215 48.2 0 92.8 16 128.7 42.8-3.4 5-5.3 11-5.3 17.5 0 17.3 14 31.3 31.3 31.3 6.5 0 12.5-2 17.5-5.3 26.9 35.9 42.8 80.5 42.8 128.7 0 118.5-96.5 215-215 215z"/><ellipse class="st0" cx="255.8" cy="256" rx="96.2" ry="96.1"/></g><g id="Layer_2"><path class="st0" d="M370.9 57.5c2.9-3.5 4.6-8 4.6-12.9 0-11.2-9-20.2-20.2-20.2-4.9 0-9.4 1.7-12.9 4.6-24.2-18.2-54.2-29-86.8-29C176 0 111.2 64.8 111.2 144.4c0 79.6 64.8 144.4 144.4 144.4 79.6 0 144.4-64.8 144.4-144.4 0-32.6-10.9-62.7-29.1-86.9zM255.6 282.9c-76.4 0-138.6-62.2-138.6-138.6C117 67.9 179.2 5.8 255.6 5.8c31.1 0 59.8 10.3 82.9 27.6-2.2 3.2-3.4 7.1-3.4 11.3 0 11.2 9 20.2 20.2 20.2 4.2 0 8.1-1.3 11.3-3.4 17.3 23.1 27.6 51.9 27.6 82.9 0 76.4-62.2 138.5-138.6 138.5zM30 396h6v113h-6zM119.2 393.8c-33.8 0-59.3 25.5-59.3 59.1 0 33.8 25.5 59.1 59.3 59.1s59.3-25.3 59.3-59.1c0-33.6-25.5-59.1-59.3-59.1zm0 112.7c-30.4 0-53.3-23-53.3-53.6s22.9-53.5 53.3-53.5 53.3 23 53.3 53.5c0 30.6-22.9 53.6-53.3 53.6zM291.3 405.1c-12.8-10.4-28.2-11.4-36.1-11.4-17.8 0-37.8 7.3-44.8 24.3h1.7v-22h-6v113h6v-64.6c0-28.3 16.4-45 44.6-45 17 0 26.5 5.5 32.2 10.6 8.5 7.6 14.1 20.2 14.1 39.7V509h5v-59.3c0-20.2-5.7-35.3-16.7-44.6zM340 396h6v113h-6zM430.7 505.6c-28.7 0-53.3-21.2-53.3-53.1 0-15.3 6.4-30 15.5-38.2 11.7-10.4 22.1-15.5 38-15.5 22.1 0 41.6 11.3 49.3 33.3h6.6c-8.9-25-33.1-38.7-56.1-38.7-34.2 0-59.3 26.2-59.3 59.6 0 35.1 26.6 58.1 59.3 58.1 26.8 0 48-15 55.9-39H480c-5.5 17.9-23.8 33.5-49.3 33.5z"/><circle class="st0" cx="31.6" cy="361.7" r="6.4"/><circle class="st0" cx="343.1" cy="361.7" r="6.4"/><circle class="st0" cx="255.6" cy="144.4" r="58.8"/></g></svg>