<svg id="Layer_5" data-name="Layer 5" xmlns="http://www.w3.org/2000/svg" viewBox="0 0 83.66 85.57"><defs><style>.cls-1{fill:#ff7800;}.cls-2{fill:#333;}</style></defs><title>carrot</title><path class="cls-1" d="M4958.87,1281.81s32.26-74.41,52-56c20.69,19.3-52,56-52,56" transform="translate(-4957.24 -1197.87)"/><path class="cls-2" d="M4958.87,1283.45a1.64,1.64,0,0,1-1.5-2.29c1.06-2.44,26.2-59.9,46.6-59.9a11.6,11.6,0,0,1,8.05,3.38,12,12,0,0,1,4.09,11c-2.91,20.43-54.32,46.57-56.51,47.67A1.62,1.62,0,0,1,4958.87,1283.45Zm45.1-58.91c-14,0-33.23,35.4-41.66,53.6,12.42-6.72,48.34-27.43,50.56-43a8.82,8.82,0,0,0-3.08-8.11A8.31,8.31,0,0,0,5004,1224.53Z" transform="translate(-4957.24 -1197.87)"/><path class="cls-2" d="M4998.4,1239.38a1.65,1.65,0,0,1-1.27-.6s-3.53-4.28-8.1-5.57a1.63,1.63,0,1,1,.89-3.15c5.59,1.57,9.59,6.45,9.76,6.66A1.64,1.64,0,0,1,4998.4,1239.38Z" transform="translate(-4957.24 -1197.87)"/><path class="cls-2" d="M4996.54,1259.54a1.64,1.64,0,0,1-1.45-.87,18.21,18.21,0,0,0-7.16-6.75,1.64,1.64,0,0,1,1.5-2.91,21.21,21.21,0,0,1,8.56,8.13A1.63,1.63,0,0,1,4996.54,1259.54Z" transform="translate(-4957.24 -1197.87)"/><path class="cls-2" d="M4979.39,1261a1.64,1.64,0,0,1-1.25-.57,13.36,13.36,0,0,0-6-3.65,1.64,1.64,0,0,1,.87-3.15,16.47,16.47,0,0,1,7.63,4.68A1.64,1.64,0,0,1,4979.39,1261Z" transform="translate(-4957.24 -1197.87)"/><path class="cls-2" d="M5011.64,1227.35a1.36,1.36,0,0,1-.82-2.45l27.89-21.1a1.37,1.37,0,1,1,1.65,2.18l-27.89,21.1A1.37,1.37,0,0,1,5011.64,1227.35Z" transform="translate(-4957.24 -1197.87)"/><path class="cls-2" d="M5011.3,1226.74a1.36,1.36,0,0,1-1-2.33l26.09-26.14a1.36,1.36,0,1,1,1.93,1.93l-26.09,26.14A1.38,1.38,0,0,1,5011.3,1226.74Z" transform="translate(-4957.24 -1197.87)"/><path class="cls-2" d="M5011.3,1226.82a1.36,1.36,0,0,1-1.11-2.16l16.69-23.28a1.37,1.37,0,0,1,2.22,1.59l-16.69,23.28A1.37,1.37,0,0,1,5011.3,1226.82Z" transform="translate(-4957.24 -1197.87)"/></svg>