<svg id="Layer_5" data-name="Layer 5" xmlns="http://www.w3.org/2000/svg" viewBox="0 0 92.46 119.28"><defs><style>.cls-1{fill:#9ce0bf;}.cls-2{fill:#fff;}.cls-3{fill:#444;}.cls-4{fill:#ff7800;}</style></defs><title>rabbit</title><path class="cls-1" d="M5426,538.09a0.79,0.79,0,0,1-.56-1.35l15.1-15.27a0.79,0.79,0,0,1,1.13,1.11l-15.1,15.27A0.78,0.78,0,0,1,5426,538.09Z" transform="translate(-5370.75 -432)"/><path class="cls-2" d="M5380.18,539c4.58,2.16,18.25,7.44,38.26,8.31,11.53,0.5,25-2.55,34.1-7.53l-4.7-25a1.63,1.63,0,0,1,.58-1.57c0.25-.2,23.78-20.07,3.4-76.31-5.34,6.4-21,29-16.61,69.29a1.63,1.63,0,0,1-2.23,1.69c-0.1,0-10.5-4.31-15.58-3.85H5417c-0.39,0-.64,0-0.9,0-5.28,0-14.73,3.84-14.82,3.88a1.63,1.63,0,0,1-2.23-1.69c4.44-40.27-11.27-62.89-16.61-69.29-20.38,56.24,3.16,76.11,3.4,76.31a1.62,1.62,0,0,1,.55,1.69l-6.52,24.22Z" transform="translate(-5370.75 -432)"/><path class="cls-1" d="M5453.25,537.78c-3.15,2-10.33,3.85-14.8,5.28-20.39,6.52-57.31-4.59-59.45-7.85-6.08,7.43,10.61,9.35,16.42,11.38,13.24,4.62,25.21,4.34,39,2.43,3.81-.53,15.13-3.89,18.37-6.22,3.43-2.46,1.37-5.64.42-5" transform="translate(-5370.75 -432)"/><path class="cls-1" d="M5428,539.74a0.43,0.43,0,0,1-.29-0.12,0.42,0.42,0,0,1,0-.59l15.1-15.27a0.42,0.42,0,1,1,.6.59l-15.1,15.27A0.42,0.42,0,0,1,5428,539.74Z" transform="translate(-5370.75 -432)"/><path class="cls-1" d="M5426.22,537a0.79,0.79,0,0,1-.56-1.35l15.1-15.27a0.79,0.79,0,1,1,1.13,1.11l-15.1,15.27A0.78,0.78,0,0,1,5426.22,537Z" transform="translate(-5370.75 -432)"/><path class="cls-1" d="M5428.24,538.64a0.43,0.43,0,0,1-.29-0.12,0.42,0.42,0,0,1,0-.59l15.1-15.27a0.42,0.42,0,1,1,.6.59l-15.1,15.27A0.42,0.42,0,0,1,5428.24,538.64Z" transform="translate(-5370.75 -432)"/><path class="cls-3" d="M5422,551h-0.37c-23.84,0-43.63-9.93-44.46-10.37a1.44,1.44,0,0,1-.81-1.72l6.59-24.4c-4.39-4.2-23.48-26.48-2.66-81.48a1.62,1.62,0,0,1,2.63-.58c1,0.94,23.87,23.27,19.52,71.05,3.65-1.32,10.48-3.5,14.56-3.11,0.29,0,.64,0,1,0,4.14,0,10.16,1.95,13.52,3.16-4.36-47.79,18.52-70.1,19.51-71a1.59,1.59,0,0,1,1.48-.4,1.63,1.63,0,0,1,1.15,1c20.92,55.26,1.56,77.53-2.71,81.58l5.06,26.73a1.62,1.62,0,0,1-.79,1.71c-9.79,5.63-21,8.2-33.52,8.2m-41.54-12.45c4.73,3,16.65,8.28,36.59,9.14,11.49,0.49,26.73-2.6,35.8-7.57l-5-26.06a1.63,1.63,0,0,1,.58-1.57c0.24-.2,23.7-20,3.38-76.06-5.32,6.38-21,28.93-16.56,69.07a1.62,1.62,0,0,1-2.22,1.68c-0.1,0-10.47-4.29-15.53-3.84h-0.4c-0.39,0-.64,0-0.9,0-5.26,0-14.68,3.83-14.78,3.87a1.62,1.62,0,0,1-2.22-1.68c4.42-40.14-11.24-62.69-16.56-69.07-20.32,56.06,3.14,75.87,3.38,76.06a1.62,1.62,0,0,1,.55,1.69l-6.5,24.14Z" transform="translate(-5370.75 -432)"/><path class="cls-4" d="M5447.09,533.73a4.85,4.85,0,0,1-2.39-.64,0.83,0.83,0,0,1,.82-1.45,3.17,3.17,0,0,0,1.93.4,3,3,0,0,0,2.05-1.14,3.21,3.21,0,0,0,.62-2.32,3.06,3.06,0,0,0-3.36-2.85,3.16,3.16,0,0,0-1.25.41,0.83,0.83,0,0,1-.84-1.44,4.72,4.72,0,0,1,7.1,3.69,4.87,4.87,0,0,1-.95,3.52,4.6,4.6,0,0,1-3.19,1.78A5.05,5.05,0,0,1,5447.09,533.73Z" transform="translate(-5370.75 -432)"/><path class="cls-4" d="M5433.6,541.1a12.21,12.21,0,1,1,12.21-12.21A12.22,12.22,0,0,1,5433.6,541.1Zm0-22.75a10.54,10.54,0,1,0,10.54,10.54A10.55,10.55,0,0,0,5433.6,518.35Z" transform="translate(-5370.75 -432)"/><path class="cls-3" d="M5402.81,528.88a3.71,3.71,0,1,1-3.7-4,3.85,3.85,0,0,1,3.7,4" transform="translate(-5370.75 -432)"/><path class="cls-3" d="M5437.51,528.88a3.71,3.71,0,1,1-3.7-4,3.84,3.84,0,0,1,3.7,4" transform="translate(-5370.75 -432)"/><path class="cls-4" d="M5457.3,529.62a1.93,1.93,0,1,1-1.93-1.93,1.93,1.93,0,0,1,1.93,1.93" transform="translate(-5370.75 -432)"/><path class="cls-4" d="M5462.92,530.81a1.93,1.93,0,1,1-1.93-1.93,1.93,1.93,0,0,1,1.93,1.93" transform="translate(-5370.75 -432)"/></svg>