<svg id="Layer_5" data-name="Layer 5" xmlns="http://www.w3.org/2000/svg" viewBox="0 0 462.67 93"><defs><style>.cls-1{fill:#333;}.cls-2{fill:#fff;}</style></defs><title>wordmark</title><path class="cls-1" d="M5165.64,760.28a7.25,7.25,0,0,1,5.84-5,5.21,5.21,0,0,1,6.14,3.54,5.73,5.73,0,0,1-2.84,6.76c-3.05,1.48-5.83.77-8.37-1.29-2-1.65-3-6.38-2.2-9.11,2.2-7.33,10.24-9.91,16.9-6.11,4.36,2.49,5,6.47,5.12,10.85,0.22,7.26-7,14.16-13.51,15.24a28.14,28.14,0,0,1-30.57-16.36c-3-6.83-3.69-14.07-4.43-21.35-0.64-6.22-.92-12.6-4.46-18.08-2.56-4-3.72-5.72-10.95-6.13-2.64,6.53-5.7,12.85-7.22,19.7-0.56,2.54,1.59,4.85,4.52,5.2,0.93,0.11,1.85.28,2.77,0.47a1,1,0,0,1,1,1,1.38,1.38,0,0,1-1.17,1.14c-3.3.39-6.6,1.87-9.92,1.84-5.75,0-11.5,1.43-17.25,1.43h-3.88c-0.84,0-2.18-1.77-2.09-2.89a2.45,2.45,0,0,1,1.65-1.72c7.2-.58,11.15-5.28,13.94-11.49,2.91-6.47,6.06-13,8.67-19.62,0.82-2.08,1.76-4.22,2.57-6.31,1.29-3.32.28-5.72-2.74-7.71-4.31-2.83-8.63-5.58-14-4.94a18,18,0,0,0-4.67,1.29,8.43,8.43,0,0,0-3,2.52c-3,3.6-2.83,8.27-1.08,12.4,1.26,3,5.51,6.61,7.61,6.27-3.38-3.3-2.77-6.83-1.29-8.67,7.6-9.5,18.63,3.93,7.73,9.47a8.93,8.93,0,0,1-4.25.84,13,13,0,0,1-5.34-1.34c-7.4-3.54-9.31-14.85-3.66-20.81,3.07-3.24,9.35-4.47,13.6-3.16a40.26,40.26,0,0,1,9.41,4.66c3.91,2.42,7.42,1.62,10.77-1.07,5.32-4.27,11-7.85,17.93-8.94,5.55-.88,10.63.21,14.62,4.45s4.29,12,1.24,16.9-6.53,8.77-11.91,10.77c-1.88.7-3.87,1.13-5.92,1.71a35.08,35.08,0,0,1,4.31,5.94c3.77,6.84,5.18,14.33,6.37,21.93a74.78,74.78,0,0,0,5.26,18.93c3.18,7.21,12.89,11.26,19.83,7.57a24.79,24.79,0,0,0,2.24-1.17,12.55,12.55,0,0,0,5.36-7.26,13.39,13.39,0,0,0,.3-5.13c-0.23-2.06-.78-4.39-2.35-5.86-2.51-2.35-7.18-3.59-10.33-2.52a9,9,0,0,0-6.58,9,15.74,15.74,0,0,0,.35,2.21m-42.22-49.92a15.52,15.52,0,0,0,2.52.91,15.24,15.24,0,0,0,6.46.53c6.72-.56,12-3.69,15.13-9.72,1.9-3.63,3.34-7.54,1.21-11.66-1.37-2.66-3.52-4.46-6.61-4.33s-6.54.58-8.08,3.25c-3.74,6.49-7.25,14.31-10.62,21" transform="translate(-4870.66 -682.5)"/><path class="cls-1" d="M5318.19,730c0.26,0.08.38,0.42,0.1,0.95a16.29,16.29,0,0,1-5.88,6.31A11.17,11.17,0,0,1,5307,739c-3.68.1-9.7-2.57-11.44-6.3-2.49-5.35-.32-10,1.24-14.77s2.9-8,4.44-12.74c0.57-1.73-.48-3.88-0.92-5.46-1.66-6-5.61-9.72-11.59-10-6.55-.35-12.37,3.34-11.41,10.93a5.5,5.5,0,0,0,5.64,4.29,5.72,5.72,0,0,1-2.76-6.49,5.36,5.36,0,0,1,6.61-4.29c2.69,0.62,4.22,3.62,3.42,6.61a6.8,6.8,0,0,1-5,5c-2.82.62-5.75,0.26-7.64-2.11-2.14-2.7-1.92-6.3-.39-9.23,3.79-7.25,14.1-7.32,19.65-3.06,3.16,2.43,4.08,6,5.17,9.56,0.07,0.22.17,0.42,0.41,1,1-2.59,2.06-5.47,3-7.86a13.25,13.25,0,0,1-1.63-.12,8.21,8.21,0,0,1-1.58-.27c-0.7-.21-1.75-1-1.47-1.83a1.49,1.49,0,0,1,1.44-.8c3.47-.2,7-0.14,10.28-1.57a21.24,21.24,0,0,0,5.65-4c0.73-.65,1.6-1.19,2.45-0.62s0.38,1.57.12,2.29c-1.7,4.7-3.48,9.37-5.22,14.05-0.49,1.31-1.62,4.34-2.16,5.63a2.07,2.07,0,0,1-1.28,1.32,3.57,3.57,0,0,1-2.08-.2,0.54,0.54,0,0,0-.51,0c-0.93.76,2.42,1.8,2.76,1.91a29.17,29.17,0,0,0,3.24.71c3.85,0.73,7.55.58,10.27-2.6,1.66-1.95,1.43-4.61,1.46-7,0-2,1.54-4.08,3.34-4.25a2.42,2.42,0,0,1,2.57,1.52c0.66,1.47.19,2.94-.35,4.41-2.22,6-6.62,9.78-14.54,9.5a29.9,29.9,0,0,1-6.74-1c-1.14,3.26-2.43,6.72-3.5,10.1-1,3-2.33,6-1.69,9.29s4,4.91,7.24,3.5a8.38,8.38,0,0,0,2.76-2.07,10.52,10.52,0,0,0,1.14-1.47,0.82,0.82,0,0,1,.86-0.46" transform="translate(-4870.66 -682.5)"/><path class="cls-1" d="M5214.8,693.15a9.89,9.89,0,0,1-3.36-.22,2.44,2.44,0,0,1-1.86-1.28,0.94,0.94,0,0,1,.2-0.83,1.66,1.66,0,0,1,.77-0.49c1.51-.61,3.17-0.1,4.75-0.18,4.12-.23,8.67-0.75,12.05-3.42a1.23,1.23,0,0,1,1.52-.06,2.18,2.18,0,0,1,.43,2.28c-1.16,4.18-3.4,8.14-5.2,12.07-2,4.37-4.22,8.63-5.9,13.3,2-1,3.92-2.2,6.3-1.74a8.37,8.37,0,0,1,6.35,6.71c1,7.75-2.26,13.72-8.47,17.9a16.65,16.65,0,0,1-14.29,2.12c-5.23-1.56-8.2-7.79-6.91-13.16a69.55,69.55,0,0,1,2.85-10c1.91-4.71,4.16-9.29,6.3-13.9,1.36-2.92,3-6.14,4.47-9.14m-1,42.5a5.08,5.08,0,0,0,4-1.78,28.72,28.72,0,0,0,6.12-13c0.39-1.77.14-3.5-1.53-4.41a3.22,3.22,0,0,0-3.87.55,27.18,27.18,0,0,0-7.94,12.76c-1.11,3.92.17,5.6,3.17,5.88" transform="translate(-4870.66 -682.5)"/><path class="cls-1" d="M5250.85,713.51c2.43-.94,4.67-1.87,7-1.42a8.27,8.27,0,0,1,6.77,7.9c0.18,7.28-2.62,13.3-9.08,17a16.16,16.16,0,0,1-13.63,1.67c-4.32-1.44-7.37-7.74-6.84-12.47,1.09-9.66,5.91-17.76,10.07-26.17,0.73-1.47,1.42-3,2.11-4.46,0.35-.76.71-1.52,1.05-2.28,0.19-.42.53-1.25,0.17-1.65a1.16,1.16,0,0,0-1,0l-0.88,0a3.17,3.17,0,0,1-1-.2,1.45,1.45,0,0,1-1.29-1.36,1.1,1.1,0,0,1,1.24-.86,50.67,50.67,0,0,0,11.28-2.12,21.62,21.62,0,0,0,3.79-1.65c0.62-.33,1.24-0.68,1.86-1a1.1,1.1,0,0,1,1.51.21,1.68,1.68,0,0,1,0,1.35,51.29,51.29,0,0,1-2.25,5.32c-0.79,1.82-1.57,3.63-2.36,5.44-1.59,3.62-3.24,7.22-5.11,10.7l-0.37.67c-0.91,1.65-2.05,3.53-3.09,5.36m6.91,6.31c0.18-2,.14-3.42-0.93-4.1-2.09-1.32-5.69-.69-7.47,1.73-2.87,3.89-5.32,8-5.74,13a4,4,0,0,0,1.9,4.21,3.9,3.9,0,0,0,4.62-.37,13.08,13.08,0,0,0,3.47-4.07c2-3.76,3.63-7,4.14-10.44" transform="translate(-4870.66 -682.5)"/><path class="cls-1" d="M5183.83,720.25c0.65-1.38,1.25-2.53,1.74-3.73a2.1,2.1,0,0,1,2.15-1.24c2.31-.1,4.62-0.11,6.93-0.1,1.09,0,1.55.63,1.09,1.63-2.23,4.79-4.74,9.47-5.82,14.72a17.61,17.61,0,0,0-.64,3.48c0,1-.14,2.22,1.19,2.69,2,0.71,3.53-.25,5-1.54,0.23-.21.46-0.43,0.67-0.65l0.74-.76a1.21,1.21,0,0,1,.43-0.33,0.41,0.41,0,0,1,.48.13,0.53,0.53,0,0,1,0,.51,6.44,6.44,0,0,1-1.58,2,11.27,11.27,0,0,1-1.84,1.47c-3.24,1.92-7.4,3.09-10.79,1a7.36,7.36,0,0,1-2.67-2.36,6.69,6.69,0,0,1-1-3.31,22.14,22.14,0,0,1-6.29,4.3c-6.78,3-14.72-1.52-16-8.79-1.57-8.94,5.84-17.41,15.21-18.05,5.92-.41,11.44,2.41,11.07,8.92m-8.44,5.88a2.08,2.08,0,0,1,1.17-.38,6.24,6.24,0,0,0,1.32-.55,6.31,6.31,0,0,0,2.09-1.93c1.19-1.75,1.94-3.86.72-5.82a3.54,3.54,0,0,0-3.13-1.82,7.61,7.61,0,0,0-3.61,1.45,14,14,0,0,0-3,2.76,19.06,19.06,0,0,0-3.48,7.29c-0.69,2.66-.78,5.65,1.87,7.4,3.1,2,5.79.36,8.24-1.68,3-2.49,3.39-5.33,5.31-9.61-1.58,1.67-3.26,3.43-5.68,3.73a5.21,5.21,0,0,1-.85,0,1.44,1.44,0,0,1-.71-0.17,0.61,0.61,0,0,1-.28-0.63,0.24,0.24,0,0,1,0-.08" transform="translate(-4870.66 -682.5)"/><path class="cls-1" d="M5286.15,709.75a1.29,1.29,0,0,1,1.13.15c0.75,0.55.34,2.19,0.05,2.91-1.78,4.49-3.88,8.86-5.67,13.34a31.86,31.86,0,0,0-1.54,6c-0.27,1.44-.28,3.09,1.24,3.89s3.36,0,4.66-.87a33.45,33.45,0,0,0,3.67-3c0.58-.54,1.15-1.1,1.75-1.61,0.25-.21,1.15-0.79,1.11,0a2.29,2.29,0,0,1-.77,1c-3.27,3.3-7.14,6.9-12.09,7.1a12.05,12.05,0,0,1-3.93-.43,8.15,8.15,0,0,1-5.73-8.06c0.22-4.65,2.11-8.66,3.76-12.95-2.08-.47-3.67-1.32-3.06-4a27.55,27.55,0,0,0,5.08.23,16.44,16.44,0,0,0,7.23-1.85c0.69-.35,2-1.54,3.11-1.83" transform="translate(-4870.66 -682.5)"/><path class="cls-1" d="M4991.32,712.71H4997a5.26,5.26,0,0,1,.65,0,0.32,0.32,0,0,1,.27.33,0.7,0.7,0,0,1-.88.74,18.92,18.92,0,0,0-2.42.1,3.84,3.84,0,0,0-1.44.4,4.16,4.16,0,0,0-.59.53,2.44,2.44,0,0,0-.44,1.91c0,2.7.08,5.39,0.12,8.09,0,2.17,0,5,0,7.17,0,0.19,0,.37,0,0.55a0.47,0.47,0,0,1-.39.46,8.18,8.18,0,0,1-2.29.25c-0.75,0-1.49,0-2.23,0a33.63,33.63,0,0,1-4.12-.18,8.86,8.86,0,0,1-3.32-.77,9.37,9.37,0,0,1-2.62-2.23c-0.73-.83-1.6-1.47-2.4-2.24a39.56,39.56,0,0,1-3.77-3.85c-0.42-.53-0.94-1-1.41-1.48l-1.85-2c-0.25-.27-0.66-1-0.93-1.22-0.64-.63-0.77-1-1.42-1.65-0.42-.4-1.31-1.87-1.75-2.26a2.93,2.93,0,0,0-.54-0.53,0.28,0.28,0,0,0-.14.21c0,0.5-.07,2.69-0.06,3.18,0,1.61-.21,3.21-0.08,4.83a13.63,13.63,0,0,1,0,1.38,1.55,1.55,0,0,0,0,.37,28,28,0,0,1,.16,4.18,7.2,7.2,0,0,0,.36,2.22,2.49,2.49,0,0,0,2.25,1c1,0,2,.12,3,0.19a1,1,0,0,1,.37.06,0.5,0.5,0,0,1,.24.26,0.58,0.58,0,0,1-.63.68c-0.64,0-1.29,0-1.93.07l-2.69.14a2,2,0,0,1-.37,0,36.23,36.23,0,0,0-5.19-.07c-0.71,0-1.42,0-2.14,0a0.83,0.83,0,0,1-.27,0,0.41,0.41,0,0,1,0-.81,2.06,2.06,0,0,1,.45-0.06,21.81,21.81,0,0,0,2.89-.48,2.14,2.14,0,0,0,1.57-1.75c0.08-.83.2-1.66,0.2-2.5a40.74,40.74,0,0,0,.06-5.19,22.24,22.24,0,0,1-.06-2.31c0-.77,0-1.55,0-2.32s-0.11-1.67-.19-2.5-0.46-.93-1.31-1c-1.67-.13-3.34-0.23-5-0.35l-0.56,0a1.42,1.42,0,0,1-1.2-1,0.54,0.54,0,0,1,.11-0.42,0.82,0.82,0,0,1,.65-0.31c0.43,0,.86,0,1.3,0l3.15,0.1c1.36,0,2.73.07,4.09,0.07,1,0,2-.05,3-0.08,0.71,0,1.42-.07,2.13-0.07s1.42,0.07,2.12.09c0.53,0,1.06,0,1.58,0l0.73,0a6.92,6.92,0,0,1,3.82,1.3,3.92,3.92,0,0,1,.68.63,10.38,10.38,0,0,1,1.44,1.57,18.12,18.12,0,0,0,1.3,1.44c0.91,1.06,1.86,2.07,2.75,3.13,0.58,0.68,1.28,1.25,1.92,1.89,0.86,0.85,1.72,1.69,2.53,2.59,1,1.06,2.69,2.49,3.72,3.47l0.6,0.58c0.14,0.14.31,0.12,0.34-.06a2.49,2.49,0,0,0,.07-0.73,21.17,21.17,0,0,1-.14-3.52c0-1.86,0-3.72,0-5.58,0-1.28.69-4.84-1.28-5-0.41,0-.8-0.17-1.22-0.2-0.64-.05-0.51-0.12-1.14-0.17a2.41,2.41,0,0,1-.64-0.07c-0.24-.08-0.49-0.13-0.74-0.2a0.8,0.8,0,0,1-.46-0.56c-0.08-.29.17-0.37,0.43-0.38,0.43,0,.86,0,1.3,0h4.34" transform="translate(-4870.66 -682.5)"/><path class="cls-1" d="M4882.57,712.71c1.17,0.05,2.11,0,2.91,0s1.86,0,2.78,0c1.92,0,3.84,0,5.76.05,0.49,0,1,.09,1.48.14a0.74,0.74,0,0,0,.09,0c1.29-.2,2.58.15,3.87-0.08a11.07,11.07,0,0,1,3,0,19.74,19.74,0,0,0,2.77.06c1-.05,2,0,3,0,1.26,0,1.52.45,1.64,1.65a25.76,25.76,0,0,1-.1,2.76c0,0.65.07,1.3,0.07,2,0,0.15,0,.31,0,0.46a0.53,0.53,0,0,1-.38.48,0.56,0.56,0,0,1-.6-0.15,1,1,0,0,1-.32-0.74c0-.28,0-0.56,0-0.84a4.72,4.72,0,0,0-.16-0.81,3.93,3.93,0,0,0-2.89-2.63,6,6,0,0,0-2.47-.32c-0.64.07-1.29,0-1.95,0.07-1.64,0-3.28.08-4.92,0.15a8.1,8.1,0,0,0-1.48.2,3.29,3.29,0,0,0-2.3,1.87,5.83,5.83,0,0,0-.41,1.23,19.35,19.35,0,0,0-.44,3.44,3.94,3.94,0,0,0,.06.74,0.44,0.44,0,0,0,.54.39c1.32-.23,2.39,0,4-0.09a1.26,1.26,0,0,0,1-.56c0.23-.33.44-0.67,0.65-1,0.09-.16.17-0.33,0.27-0.48a0.39,0.39,0,0,1,.49-0.17,0.38,0.38,0,0,1,.3.41c0,0.49,0,1,0,1.47-0.1,1.09.08,2.16,0.07,3.24,0,0.15,0,.31,0,0.46a4.92,4.92,0,0,1-.23,1.7,0.75,0.75,0,0,1-.44-0.09,0.72,0.72,0,0,1-.24-0.38c-0.05-.17,0-0.37-0.07-0.55a1.65,1.65,0,0,0-1.54-1.5,14.11,14.11,0,0,0-2.82-.06,12.11,12.11,0,0,0-1.31.13,0.77,0.77,0,0,0-.81.93,9,9,0,0,0,.14,3,4.78,4.78,0,0,1,.09.65A1.4,1.4,0,0,0,4892,731a2.49,2.49,0,0,1,.26.37,1.66,1.66,0,0,0,1,.67c0.45,0.11.89,0.26,1.34,0.36s0.92,0.13,1.38.2l2.12,0.3a0.45,0.45,0,0,1,.25.1,0.78,0.78,0,0,1,.23.36,0.38,0.38,0,0,1-.2.27,2.61,2.61,0,0,1-1.16.28c-1.21,0-2.42,0-3.62.06s-2.47,0-3.7,0c-0.33,0-.67.1-1,0.1-1.55,0-3.1.07-4.65,0.06-0.74,0-1.48-.08-2.22-0.13a25.13,25.13,0,0,0-4.46.07c-0.7.07-1.42,0.08-2.13,0.12-0.37,0-.73.08-1.1,0.1s-0.87,0-1.3,0a1,1,0,0,1-.86-0.46,0.36,0.36,0,0,1,.16-0.6,1.5,1.5,0,0,1,.44-0.09c0.61-.07,1.23-0.12,1.85-0.18a9.5,9.5,0,0,0,2.78-.69,2.65,2.65,0,0,0,.94-0.73,5.4,5.4,0,0,0,1-3.24c0.13-1.72,0-3.45,0-5.17a25.33,25.33,0,0,0-.25-4.91,4,4,0,0,0-1.55-2.45,5.38,5.38,0,0,0-2.92-1.07c-0.89,0-1.78-.18-2.68-0.28a1.58,1.58,0,0,1-1.15-.7,0.49,0.49,0,0,1,.36-0.81,2.31,2.31,0,0,1,.37,0l4.38,0.08c1.05,0,1.79-.12,2.84-0.11,1.37,0,2.83-.14,3.83-0.14" transform="translate(-4870.66 -682.5)"/><path class="cls-1" d="M5070.77,712.42a30.2,30.2,0,0,0,3.55-.08,20.09,20.09,0,0,1,2,0l2.23,0a5.22,5.22,0,0,1,.64,0,0.41,0.41,0,0,1,.32.41,0.3,0.3,0,0,1-.17.38,0.82,0.82,0,0,1-.42.17,6.8,6.8,0,0,0-1.09.18,8.35,8.35,0,0,0-2.75.71,4,4,0,0,0-.86.5c-0.3.21-.58,0.44-0.87,0.67a30.23,30.23,0,0,0-4.31,3.92,5.12,5.12,0,0,1-.46.44c-0.94.86-1.91,1.69-2.89,2.49a1.46,1.46,0,0,0-.58,1.26c0,1.7,0,3.41,0,5.11,0,0.16,0,.31,0,0.47a1.46,1.46,0,0,0,1.24,1.54c0.6,0.16,1.2.33,1.81,0.46a13,13,0,0,0,1.46.22,1.28,1.28,0,0,1,1,.53c0.24,0.33.29,0.52,0,.63a3.78,3.78,0,0,1-1.08.23c-1.49,0-3,0-4.46-.05-0.4,0-.8-0.09-1.2-0.1-0.65,0-1.3,0-2,0-1,0-2,0-3.07-.11a9.81,9.81,0,0,0-1.85,0l-2.78.09-1.75.08h-0.1a0.76,0.76,0,0,1-.72-0.32,0.72,0.72,0,0,1,.36-0.86,3.39,3.39,0,0,1,1.49-.4l0.93,0a4.79,4.79,0,0,0,2.2-.54,0.44,0.44,0,0,0,.26-0.44c0-1.08,0-2.16.09-3.23a1.65,1.65,0,0,0-.61-1.48c-0.85-.7-1.67-1.44-2.5-2.17a8.5,8.5,0,0,1-.68-0.67,12.89,12.89,0,0,0-2-1.85,13.76,13.76,0,0,1-1.23-1.17q-0.48-.45-1-0.87c-0.68-.57-1.46-1.08-2.09-1.7a5.55,5.55,0,0,0-1.55-1.28c-0.42-.19-0.76-0.5-1.17-0.69a3.94,3.94,0,0,0-1.17-.56,7.94,7.94,0,0,1-1.56-.36,3.12,3.12,0,0,0-1.09-.1,2.74,2.74,0,0,1-2.4-.76,1,1,0,0,1-.22-0.4,0.27,0.27,0,0,1,.2-0.36,4.34,4.34,0,0,1,.64-0.08c1-.07,2,0.08,3,0.09l1,0,3.24,0.09H5047c0.46,0,.93,0,1.39,0a11.62,11.62,0,0,0,2.22.08,5.33,5.33,0,0,1,.83,0,5.86,5.86,0,0,0,2.39-.06,13.06,13.06,0,0,0,2.2-.07,5.63,5.63,0,0,0,1.24,0c0.71,0,1.41-.24,2.1-0.23a3.27,3.27,0,0,1,.55,0,4.15,4.15,0,0,1,.81.22,0.56,0.56,0,0,1,.36.6,0.59,0.59,0,0,1-.48.59,4.83,4.83,0,0,1-1.75,0,2.23,2.23,0,0,0-1.72.5,0.44,0.44,0,0,0-.06.66,4.35,4.35,0,0,0,.45.48,3,3,0,0,1,.5.43c0.78,1.21,2,2,3,3a29.28,29.28,0,0,0,2.57,2.36,0.49,0.49,0,0,0,.75,0,2.53,2.53,0,0,0,.42-0.34c1-1.1,2.12-2,3.15-3,0.73-.74,1.5-1.42,2.28-2.1,0.53-.45,1-0.92,1.57-1.39a0.21,0.21,0,0,0,0-.38,3.13,3.13,0,0,0-1.85-.57c-0.58,0-1.17-.06-1.76,0a10.55,10.55,0,0,0-1.27-.07,0.81,0.81,0,0,1-.43-0.17,0.32,0.32,0,0,1,0-.49,1.51,1.51,0,0,1,.49-0.21,11,11,0,0,1,2.4-.13c0.49,0,1,0,1.55.07" transform="translate(-4870.66 -682.5)"/><path class="cls-1" d="M4941,733.31h-5.68c-0.31,0-.29-0.05-0.61-0.05s-0.76,0-1.22,0h-2a3.17,3.17,0,0,0-1.07,0,0.62,0.62,0,0,1-.43-0.06,0.48,0.48,0,0,1-.24-0.34,0.44,0.44,0,0,1,.25-0.34,11.46,11.46,0,0,1,1.39-.15,3,3,0,0,0,1.58-.48,1.74,1.74,0,0,0,.36-0.29,0.65,0.65,0,0,0,.08-0.92,8.82,8.82,0,0,0-1.08-1.48,0.83,0.83,0,0,1-.17-0.31,0.62,0.62,0,0,0-.11-0.25,8.74,8.74,0,0,1-1.29-1.68,4.88,4.88,0,0,1-.53-0.85,1.08,1.08,0,0,0-1-.57,15.23,15.23,0,0,0-2.59,0,6.42,6.42,0,0,1-1.38,0,7.94,7.94,0,0,1-.92-0.07,10.35,10.35,0,0,0-2.95.13,0.67,0.67,0,0,0-.44.3c-0.77,1.23-1.73,2.33-2.44,3.6-0.18.32-.45,0.59-0.65,0.89a6.4,6.4,0,0,0-.48.79,0.73,0.73,0,0,0,.37,1.07,4.41,4.41,0,0,0,1.8.41,7.81,7.81,0,0,1,1.39,0,0.52,0.52,0,0,1,.33.26,0.31,0.31,0,0,1-.17.39,0.68,0.68,0,0,1-.32.15,18.39,18.39,0,0,1-2.85,0,4,4,0,0,0-.93,0c-0.74.05-.87-0.13-1.62-0.08-0.38,0-.79.06-1.17,0.09a9.45,9.45,0,0,1-1,0,1.24,1.24,0,0,1-1.06-.38c-0.19-.34.18-0.6,0.46-0.66a3.24,3.24,0,0,1,.82-0.13,3.38,3.38,0,0,0,2-.74c1.49-2.14,2.38-4,3.89-6.15,3-4.31,6.08-8.61,9.08-13,0.56-.81.69-1.16,1.61-0.78a4.06,4.06,0,0,1,1.63,1.19c0.62,0.77,1.21,1.56,1.83,2.34a9.62,9.62,0,0,0,.88,1.06,6.7,6.7,0,0,1,1.06,1.4,8.2,8.2,0,0,0,1.22,1.74,0.82,0.82,0,0,1,.17.22,15.37,15.37,0,0,0,1.16,1.66A27.81,27.81,0,0,0,4940,724a18.28,18.28,0,0,1,1.27,1.71,12.44,12.44,0,0,0,1.68,2,6,6,0,0,1,.9,1.06,11.89,11.89,0,0,0,3,3.12,3.94,3.94,0,0,0,1.87.76,5.56,5.56,0,0,1,.87.1,0.34,0.34,0,0,1,.17.42,4,4,0,0,1-.29,1c-0.24,0-.5.85-0.74,0.85H4941v-1.69Zm-15.11-8.5s0,0,0,0c0.37,0,.75,0,1.11,0a3.7,3.7,0,0,1,1.38,0,0.87,0.87,0,0,0,.44-0.1,0.23,0.23,0,0,0,.12-0.37,24,24,0,0,0-1.67-2.54c-0.39-.55-0.84-1.06-1.24-1.6s-0.43-.59-0.91-0.09a7.09,7.09,0,0,0-.84,1c-0.65,1-1.27,2-1.9,2.95a2.51,2.51,0,0,0-.14.24,0.23,0.23,0,0,0,.14.36c0.28,0,.55.06,0.83,0.08l1.38,0.07,1.29,0.09" transform="translate(-4870.66 -682.5)"/><path class="cls-1" d="M5031.71,713.29a23.18,23.18,0,0,0,.06,2.43c0,0.17,0,.35,0,0.52s0,0.59,0,.89a16.18,16.18,0,0,1-.09,2.06,1.8,1.8,0,0,1-.15.64,0.68,0.68,0,0,1-.51.4c-0.73.08-1.05-1.15-1.17-1.67-0.23-1-.49-1.94-0.73-2.91a5.43,5.43,0,0,0-1.31-2.13,0.57,0.57,0,0,0-.23-0.16,7.39,7.39,0,0,0-1.92-.78,4.09,4.09,0,0,1-.46-0.13c-0.5-.11-1-0.22-1.5-0.36A5.2,5.2,0,0,0,5022,712a14.18,14.18,0,0,0-3.4.55,4.39,4.39,0,0,0-1.6.88,8.1,8.1,0,0,0-2.48,3A5,5,0,0,0,5014,718a2.88,2.88,0,0,1-.14.54,8.82,8.82,0,0,0-.18,4.31c0.12,0.57.15,1.16,0.28,1.71a13,13,0,0,0,.68,1.82c0,0.12.14,0.21,0.18,0.33a5.51,5.51,0,0,0,2.24,2.59c0.26,0.18.52,0.36,0.78,0.55A8.19,8.19,0,0,0,5020,731a1.63,1.63,0,0,0,.27.08c0.7,0.06,1.4.1,2.1,0.19a3.61,3.61,0,0,0,2-.38c0.91-.44,1.8-0.94,2.68-1.45a6.87,6.87,0,0,0,2-1.93c1.89-2.6,3,.36.89,1.7a14.55,14.55,0,0,1-5.52,3.39l-1.27.43a6.41,6.41,0,0,1-1.68.29c-0.72,0-1.46.09-2.19,0.15a12,12,0,0,1-4.08-.37l-3-.8c-6-1.55-9.83-9.66-6.62-15a11.65,11.65,0,0,1,2.21-2.79,15.86,15.86,0,0,1,2.7-1.9c0.58-.33,1.16-0.66,1.75-1a4.57,4.57,0,0,1,.88-0.36,22.42,22.42,0,0,1,4.77-1,16.72,16.72,0,0,1,1.9.05,4.7,4.7,0,0,0,.66.08,11.39,11.39,0,0,1,2.5.22,7.25,7.25,0,0,1,1.29.27,11.11,11.11,0,0,0,1.18.43,8.54,8.54,0,0,1,2.21.7c0.27,0.13.55,0.17,0.81,0.29a3.51,3.51,0,0,1,1,.71,3.92,3.92,0,0,1,0-1.27,1.1,1.1,0,0,1,1.31-1,1.37,1.37,0,0,1,1,1.64,4.91,4.91,0,0,0-.1.79" transform="translate(-4870.66 -682.5)"/><path class="cls-2" d="M5212.59,764l-0.34,0-0.14.16c-0.84.92-1.28,2.18-2.28,2.47-0.45.13-1.76,1.27-2.58,1.27h0c-1.13,0-1.69-1.25-2.21-1.75-0.91-.84-1.19-2-1.3-3.65a6.06,6.06,0,0,1,.39-3l0.11-.4a3.33,3.33,0,0,1,1.74-2.23,7.71,7.71,0,0,1,4.44-.54,3.2,3.2,0,0,1,.9.51,5.86,5.86,0,0,0,.67.44,1,1,0,0,0,1.39-.42,0.74,0.74,0,0,0-.08-0.79,4.75,4.75,0,0,0-2.24-1.42l-0.44-.17a6.42,6.42,0,0,0-2.53-.35,8,8,0,0,0-4.8,2.25,8.22,8.22,0,0,0-1.7,5.47,5.85,5.85,0,0,0,1.89,4.42A6.32,6.32,0,0,0,5208,768h0.36a14.52,14.52,0,0,0,2.85-.58,2.82,2.82,0,0,0,1.68-1.08,3.59,3.59,0,0,1,.48-0.53,0.85,0.85,0,0,0,.25-1,1.25,1.25,0,0,0-1.05-.75" transform="translate(-4870.66 -682.5)"/><path class="cls-2" d="M5232,755.8a8.76,8.76,0,0,0-5-1.44,9.13,9.13,0,0,0-2.13.33c-2.8.67-4.24,3-4.06,6.62a7.5,7.5,0,0,0,.58,2.42,6.53,6.53,0,0,0,2.74,3.38,4.78,4.78,0,0,0,2.49.6c0.32,0,.65,0,1-0.05a8.8,8.8,0,0,0,3.64-1,6.32,6.32,0,0,0,2.28-2.5,6.71,6.71,0,0,0,.55-3.64c-0.15-2.35-.76-3.77-2.07-4.73m-0.27,7.46a3.22,3.22,0,0,1-1.55,1.64,6.62,6.62,0,0,1-2.78.77,4.73,4.73,0,0,1-2.9-.61,4.45,4.45,0,0,1-1.77-3.45,5.19,5.19,0,0,1,1.26-4c0.62-.64,1.54-0.61,2.81-0.61H5227c1.93,0,3.1-.06,3.82.45,1,0.67,1.24,1.7,1.34,3.54a4.86,4.86,0,0,1-.45,2.28" transform="translate(-4870.66 -682.5)"/><path class="cls-2" d="M5239.64,765.29a1.46,1.46,0,0,0-1.44,1.31,1.19,1.19,0,0,0,.27,1,1.47,1.47,0,0,0,1.09.52,1.5,1.5,0,0,0,1.14-.47,1.22,1.22,0,0,0,.27-1,1.25,1.25,0,0,0-1.34-1.32" transform="translate(-4870.66 -682.5)"/><path class="cls-2" d="M4979.9,760.61a4.39,4.39,0,0,0-2.58-.73H4977l-1.59,0a14.36,14.36,0,0,1-1.46-.11l-0.82-.08c-0.35,0-2.08-.27-2-1.27a2.06,2.06,0,0,1,.88-1.58,4.53,4.53,0,0,1,2-.58,9.66,9.66,0,0,1,4.59.94l0.32,0.07a0.83,0.83,0,0,0,.78-0.7,1,1,0,0,0-.38-1.17,10.47,10.47,0,0,0-5.25-1.12h-0.19a5.75,5.75,0,0,0-2.71.71,3.42,3.42,0,0,0-2,2.92,3.28,3.28,0,0,0,.75,2.41,3.71,3.71,0,0,0,2.49,1.33l1.49,0.17a13,13,0,0,0,2.84.08h0.85a2.49,2.49,0,0,1,1.26.23,1.68,1.68,0,0,1,.81,1.37c0,1.48-.33,1.93-1.71,2.26a13.15,13.15,0,0,1-3.46.36,6.21,6.21,0,0,1-4.11-1.45,0.69,0.69,0,0,0-.51-0.22,1.06,1.06,0,0,0-.9.78,1.09,1.09,0,0,0,.3,1.25,7,7,0,0,0,2.33,1.17l0.2,0.07a6.2,6.2,0,0,0,2,.41h0.2a17.93,17.93,0,0,0,3.85-.44c1.84-.45,3.8-1.15,3.8-3.86a4.15,4.15,0,0,0-1.8-3.24" transform="translate(-4870.66 -682.5)"/><path class="cls-2" d="M4999.92,756a8.72,8.72,0,0,0-5-1.44,9.48,9.48,0,0,0-2.15.33c-2.8.68-4.24,3-4.06,6.62a7.65,7.65,0,0,0,.58,2.42,6.58,6.58,0,0,0,2.74,3.37,4.77,4.77,0,0,0,2.49.6c0.32,0,.66,0,1-0.05a8.93,8.93,0,0,0,3.64-1,6.3,6.3,0,0,0,2.28-2.51,6.65,6.65,0,0,0,.56-3.64c-0.15-2.35-.77-3.76-2.07-4.72m-0.27,7.46a3.2,3.2,0,0,1-1.55,1.65,6.65,6.65,0,0,1-2.78.77,4.7,4.7,0,0,1-2.9-.61,4.44,4.44,0,0,1-1.77-3.44,6.06,6.06,0,0,1,1.26-4.36,3.7,3.7,0,0,1,2.79-.94h0.25a7,7,0,0,1,3.81.78c1,0.67,1.24,1.87,1.35,3.71a5.55,5.55,0,0,1-.45,2.45" transform="translate(-4870.66 -682.5)"/><path class="cls-2" d="M5012.34,759.94c0-.36,0-0.79.05-1.23s0.06-.89.06-1.31c0-1,0-1,.76-1h0.36c0.8,0,3.06,0,3.85.05a14.26,14.26,0,0,0,2.62,0,1.19,1.19,0,0,0,1-1.24,0.89,0.89,0,0,0-.92-0.89,8.71,8.71,0,0,0-1.3.1,9,9,0,0,1-1.29.09c-0.66,0-2.69,0-3.48,0l-0.49,0a16.7,16.7,0,0,0-2-.06,1.31,1.31,0,0,0-1,.36,1.36,1.36,0,0,0-.17,1.09c0,0.27.09,1.12,0.13,1.9,0,0.42,0,1-.08,1.46s-0.08,1-.07,1.36c0,0.75,0,1.29.05,1.82s0,1.14,0,1.93,0,1.4-.07,2.3l0,0.46a1,1,0,0,0,.29.76,1.32,1.32,0,0,0,.94.4,0.85,0.85,0,0,0,.66-0.28,0.79,0.79,0,0,0,.17-0.64,11.05,11.05,0,0,1-.06-2.15c0-.28,0-0.56,0-0.85,0-.71,0-0.73,1.28-0.8a7.66,7.66,0,0,1,1.25,0,8,8,0,0,0,1,.05l1.22,0a17.65,17.65,0,0,1,2.88,0,0.81,0.81,0,0,0,.81-0.81,1.25,1.25,0,0,0-1-1.31,18.44,18.44,0,0,0-3,0l-0.46,0c-0.87,0-2.51.06-3.41,0.13l-0.44,0h-0.19a0.84,0.84,0,0,1,0-.27c0-.17,0-0.42,0-0.67s0-.57,0-0.79" transform="translate(-4870.66 -682.5)"/><path class="cls-2" d="M5039.66,754.63a20,20,0,0,0-2.07,0l-1.07,0c-1.32,0-2,0-3.43-.09l-0.63,0c-0.34,0-.68,0-1.11-0.06l-2.14-.23a0.85,0.85,0,0,0-.73.42,1.3,1.3,0,0,0-.18.69,1.1,1.1,0,0,0,1,1.22c0.33,0,.56,0,0.78,0l0.58,0H5031c0.3,0,.7,0,1.1,0a11.64,11.64,0,0,1,1.38,0c0.1,0,.22,0,0.22.47s0,0.75-.09,1.14-0.08.84-.1,1.27c0,0.78,0,1.59,0,2.39l0,0.91c0,0.75,0,1.32,0,1.9l0,0.5a9.48,9.48,0,0,1-.24,2.15,0.73,0.73,0,0,0,.15.63,1.38,1.38,0,0,0,1.05.43,1,1,0,0,0,1.09-.87,13.33,13.33,0,0,0-.06-2.16c0-.44-0.09-0.93-0.1-1.69,0-1.38,0-3,0-4.38l0-1.64c0-.28,0-0.94,0-1a1.87,1.87,0,0,1,.28,0l1.76,0a7.48,7.48,0,0,1,.95.08c0.26,0,.55.07,1,0.1a1,1,0,0,0,.79-1,0.84,0.84,0,0,0-.78-0.94" transform="translate(-4870.66 -682.5)"/><path class="cls-2" d="M5086.08,766.08c-0.22-.38-0.41-0.73-0.71-1.16-0.59-.89-1.12-1.84-1.63-2.76l-0.61-1.08c-0.29-.5-0.66-1-1-1.56a19.23,19.23,0,0,1-1.49-2.31,10.7,10.7,0,0,1-.47-1.1,5.82,5.82,0,0,0-.63-1.32,0.82,0.82,0,0,0-.74-0.34,1.76,1.76,0,0,0-1.35.57c-0.56,1.12-1.21,2.77-1.84,4.36-0.25.62-.49,1.24-0.73,1.84l-0.44,1.1c-0.34.84-.71,1.74-1.07,2.77a8.41,8.41,0,0,1-.36.85,9.42,9.42,0,0,0-.42,1,0.71,0.71,0,0,0,.1.65,1.22,1.22,0,0,0,1,.43,1,1,0,0,0,1.06-.78,8.7,8.7,0,0,1,.43-1.5l0.16-.39,0.06-.15,0.62,0c0.29,0,.64,0,1.12,0h0.79c0.77,0,1.77,0,2.54,0l2.33,0c0.3,0,.3,0,0.53.38l0.75,1.29c0.19,0.32.36,0.62,0.65,1.09a0.91,0.91,0,0,0,.81.43,1.32,1.32,0,0,0,1.1-.59,0.78,0.78,0,0,0,0-.8c-0.19-.31-0.34-0.58-0.48-0.82m-7.61-8.89,0,0.1,0.16,0.33c0.06,0.13.11,0.25,0.19,0.4,0.47,0.9,1.13,1.91,1.7,2.8,0.42,0.64.81,1.24,1.09,1.74l0.32,0.56c-0.15,0-.3.44-0.45,0.44s-0.47.43-.72,0.43h-0.19a18.09,18.09,0,0,0-1.8-.38c-0.73,0-1.5-.15-2.23-0.15a2.64,2.64,0,0,1-.44-0.12l0-.11c0.18-.43.35-0.87,0.49-1.25,0.28-.65.58-1.5,0.88-2.34s0.62-1.76.93-2.45" transform="translate(-4870.66 -682.5)"/><path class="cls-2" d="M5104.83,765.33l-0.2-.14a22,22,0,0,1-2.34-2.07l-0.33-.32c1.17-.17,3.12-0.73,3.76-1.62s1.28-1.47,1.28-2.44v-0.28c0-1.77-1.47-3.88-5.93-3.88-0.29,0-.85,0-1.15,0a12.75,12.75,0,0,1-1.91.05c-0.23,0-.64-0.05-1.94-0.07a2,2,0,0,0-1.5.43,1,1,0,0,0-.27.75,35.68,35.68,0,0,1,.12,3.82l0,0.58c-0.06,1.3-.12,2.77-0.09,4.31a10.19,10.19,0,0,1-.07,1.24,8.76,8.76,0,0,0,0,1.53,1,1,0,0,0,1.09.91,1.09,1.09,0,0,0,.79-0.3,0.75,0.75,0,0,0,.21-0.56c-0.05-1,0-2.1,0-3v-0.47c0-.73.08-1,0.06-1H5097a7.19,7.19,0,0,1,2.34.26,8.87,8.87,0,0,1,1.95,1.54c0.33,0.32.62,0.64,0.91,1a12.83,12.83,0,0,0,1.21,1.21,4.53,4.53,0,0,1,.6.55c0.1,0.12.24,0.27,0.59,0.61a1.3,1.3,0,0,0,.92.35,1.4,1.4,0,0,0,1.18-.56,0.65,0.65,0,0,0,0-.66,6,6,0,0,0-1.85-1.74m-8.45-5.4V759.7c0-.78.08-1.76,0.08-2.59s0.24-.73.55-0.73l0.33,0a13.19,13.19,0,0,0,3,.07l1,0c1.73,0,2.35.34,2.35,2.28a2,2,0,0,1-.53,1.62c-0.25.12-.44,0.24-0.62,0.35a2.48,2.48,0,0,1-1.14.45,13.27,13.27,0,0,1-3,0c-0.52,0-1-.08-1.57-0.08a0.71,0.71,0,0,1-.43-0.07,3,3,0,0,1-.05-1.06" transform="translate(-4870.66 -682.5)"/><path class="cls-2" d="M5119.29,763.4c0.44,0,.81.29,1.17,0.3s0.69,0.3,1.08.3h0l0.19-.28c0.9,0,1.81-.11,3-0.15a0.88,0.88,0,0,0,.73-1,1,1,0,0,0-.77-1.07c-1.22,0-2.17,0-3.09-.05l-2.06,0c-0.38,0-.78,0-1.22,0a9.75,9.75,0,0,1-1.26,0v0c0-1.11,0-2.27,0-3.66a3.67,3.67,0,0,1,.13-1.42c0.42,0,.87,0,1.32,0h0.36a16.93,16.93,0,0,0,2.18,0l0.81,0c0.42,0,.82,0,1.26,0s0.89,0,1.44.05a0.8,0.8,0,0,0,.75-0.88,1,1,0,0,0-.8-1.09,28.73,28.73,0,0,0-2.88,0c-0.44,0-.85,0-1.27.07s-0.91.08-1.48,0.08l-0.57,0c-0.67,0-.95,0-1.77-0.11a1.35,1.35,0,0,0-1.23.3,1.21,1.21,0,0,0-.25,1,10.83,10.83,0,0,1,0,1.36c0,0.21,0,.45,0,0.76,0,3.63,0,5.53.21,9.34,0.07,1,.44,1.93,1.14,1.93h0a9.2,9.2,0,0,0,1.13-.48c0.4,0,.79-0.27,1.27-0.28,0.71,0,1.26-.08,1.79-0.06,0.77,0,1.52,0,2.45,0,0.42,0,.86,0,1.36,0a1,1,0,0,0,.82-1.13,0.84,0.84,0,0,0-.76-1l-1.5,0-1.14,0-0.83,0c-0.7,0-1.27-.07-2.37,0l-1.4.07,0-.79c0-.69-0.08-1.32-0.09-1.94,0.25,0,.82,0,1.5-0.05h0.71Z" transform="translate(-4870.66 -682.5)"/><path class="cls-2" d="M5064,755.27a29.43,29.43,0,0,1-1.84,7,20,20,0,0,0-.7,2.36v0a7.79,7.79,0,0,0-.66-1.09,8.77,8.77,0,0,1-.76-1.26,10.06,10.06,0,0,0-.78-1.37c-0.13-.19-0.27-0.41-0.45-0.71-0.86-1.41-.8-1.63-0.66-2.18a5.58,5.58,0,0,0,.19-1.6c0-1.1-.77-2.69-2.08-2.69a2.11,2.11,0,0,0-1.43.65c-0.71.66-.36,1.83,0,3a4.86,4.86,0,0,1,.34,1.76,4.51,4.51,0,0,1-.7,1.82,6.85,6.85,0,0,0-.83,1.88c-0.06.24-.15,0.52-0.23,0.78s-0.13.4-.18,0.57l-0.08.27-0.2-.42c-0.22-.47-0.45-0.95-0.71-1.55s-0.42-1-.58-1.52-0.36-1-.66-1.7l-0.51-1a13.68,13.68,0,0,1-1.17-2.92,1.2,1.2,0,0,0-1.95-.58,0.83,0.83,0,0,0-.12.75c0.14,0.47.28,0.85,0.47,1.37l0.15,0.41a19.53,19.53,0,0,0,.86,1.95c0.15,0.3.3,0.61,0.46,1,0.43,0.92.83,1.81,1.23,2.73l0.38,0.85c0.17,0.39.31,0.69,0.42,0.94a11.25,11.25,0,0,1,.85,2.41,1.4,1.4,0,0,0,1.42.81,1,1,0,0,0,1.09-.68l0.05-.35a19,19,0,0,1,.6-2.9,14.37,14.37,0,0,1,.51-1.56l0.11-.3a3.81,3.81,0,0,1,.45-0.89c0.13-.2.28-0.44,0.49-0.82v0c0.06,0.1.14,0.25,0.24,0.48a9.68,9.68,0,0,0,.63,1.24,11.57,11.57,0,0,1,.57,1,8.23,8.23,0,0,0,.94,1.47,5.82,5.82,0,0,1,.88,1.48c0.26,0.68.26,0.68,0.48,1.37a1.38,1.38,0,0,0,1.25.92,0.88,0.88,0,0,0,.88-0.69,48.56,48.56,0,0,1,1.52-5c0.35-1,.71-2,1.12-3.44a29.29,29.29,0,0,0,1-4.09,0.81,0.81,0,0,0-.17-0.67,1.32,1.32,0,0,0-2.08.72m-7.78.71,0.1-.12a2.5,2.5,0,0,1,.13,1.32,1.72,1.72,0,0,1-.23-1.2m5.55,11.95h0v0Z" transform="translate(-4870.66 -682.5)"/></svg>